<svg id="Capa_1" enable-background="new 0 0 512 512" height="512" viewBox="0 0 512 512" width="512" xmlns="http://www.w3.org/2000/svg"><g><path d="m469.5 12h-427c-23.435 0-42.5 19.1-42.5 42.576v309.969c0 23.476 19.065 42.575 42.5 42.575h24.5c4.142 0 7.5-3.357 7.5-7.5s-3.358-7.5-7.5-7.5h-24.5c-15.164 0-27.5-12.37-27.5-27.575v-309.969c0-15.205 12.336-27.576 27.5-27.576h427c15.164 0 27.5 12.371 27.5 27.576v309.969c0 15.205-12.336 27.575-27.5 27.575h-367.5c-4.142 0-7.5 3.357-7.5 7.5s3.358 7.5 7.5 7.5h66.309l-16.528 32.865h-24.771c-16.517 0-29.955 13.462-29.955 30.008s13.438 30.007 29.955 30.007h199.99c4.142 0 7.5-3.357 7.5-7.5s-3.358-7.5-7.5-7.5h-199.99c-8.246 0-14.955-6.732-14.955-15.007s6.709-15.008 14.955-15.008h29.355c.011 0 .023.002.034.002.01 0 .019-.002.028-.002h199.641c.01 0 .019.002.028.002.011 0 .023-.002.034-.002h30.357c8.246 0 14.955 6.732 14.955 15.008 0 8.274-6.709 15.007-14.955 15.007h-24.487c-4.142 0-7.5 3.357-7.5 7.5s3.358 7.5 7.5 7.5h24.487c16.517 0 29.955-13.461 29.955-30.007s-13.438-30.008-29.955-30.008h-25.774l-16.528-32.865h125.315c23.435 0 42.5-19.1 42.5-42.575v-309.969c0-23.476-19.065-42.576-42.5-42.576zm-125.576 427.985h-175.353l16.528-32.865h142.298z"/><path d="m474.5 108.5c4.142 0 7.5-3.357 7.5-7.5v-31.532c0-14.878-12.085-26.982-26.94-26.982h-400.12c-14.855-.001-26.94 12.104-26.94 26.982v279.724c0 14.878 12.085 26.982 26.94 26.982h400.12c14.854 0 26.94-12.104 26.94-26.982v-213.192c0-4.143-3.358-7.5-7.5-7.5s-7.5 3.357-7.5 7.5v213.191c0 6.607-5.356 11.982-11.94 11.982h-400.12c-6.583 0-11.94-5.375-11.94-11.982v-279.723c0-6.607 5.356-11.982 11.94-11.982h400.12c6.583 0 11.94 5.375 11.94 11.982v31.532c0 4.143 3.358 7.5 7.5 7.5z"/><path d="m217.73 209.699c7.336.024 14.385-3.619 18.536-9.685 7.07-10.194 4.528-24.24-5.667-31.312l-54.246-37.618c10.693-2.748 18.083-14.111 16.217-25.038-1.559-11.997-13.685-20.936-25.603-18.886l-10.938 1.652c-4.096.619-6.915 4.44-6.296 8.536.619 4.097 4.441 6.919 8.536 6.296l10.939-1.652c3.969-.686 8.011 2.298 8.53 6.292.682 3.975-2.287 8.017-6.293 8.534l-15.808 2.387c-6.546.766-8.691 10.008-3.154 13.579l69.568 48.244c3.357 2.227 4.253 7.175 1.889 10.438-2.228 3.362-7.173 4.253-10.436 1.889l-69.569-48.244c-5.286-3.933-13.189 1.316-11.612 7.714l3.306 15.644c.856 4.046-1.743 8.035-5.783 8.891-4.051.855-8.036-1.743-8.888-5.791l-11.024-52.172c-.601-2.015-.242-4.219 1.108-6.179 2.299-4.026 8.754-3.461 12.535-4.33 4.096-.619 6.914-4.441 6.294-8.537-.619-4.096-4.443-6.917-8.537-6.295l-7.096 1.073c-6.2.726-11.863 4.215-15.559 9.595-3.691 5.372-4.92 11.897-3.387 17.938l10.988 52c2.552 12.135 14.507 19.933 26.661 17.374 11.241-2.379 18.75-12.811 17.765-23.975l54.248 37.62c3.811 2.642 8.237 4.018 12.776 4.018z"/><path d="m321.562 295.905c-3.56 4.834-5.028 10.766-4.133 16.704 1.536 11.992 13.738 20.956 25.604 18.889l52.728-7.967c6.2-.726 11.864-4.216 15.561-9.597 3.69-5.371 4.919-11.896 3.386-17.937l-10.988-52.001c-2.551-12.134-14.505-19.936-26.661-17.374-11.241 2.379-18.75 12.811-17.765 23.975l-54.248-37.62c-9.798-7.098-24.624-4.414-31.311 5.667-7.095 9.791-4.41 24.628 5.667 31.312l54.245 37.618c-4.839 1.332-9.063 4.228-12.085 8.331zm12.078 8.895c1.186-1.61 2.93-2.662 4.915-2.96l15.808-2.387c3.039-.459 5.49-2.726 6.186-5.719.695-2.994-.506-6.109-3.032-7.86l-69.568-48.244c-3.357-2.227-4.253-7.175-1.889-10.438 2.229-3.361 7.171-4.254 10.436-1.889l69.569 48.244c2.526 1.752 5.865 1.785 8.424.084 2.56-1.7 3.823-4.791 3.188-7.798l-3.306-15.644c-.856-4.046 1.743-8.035 5.783-8.891 4.054-.85 8.037 1.744 8.888 5.791l11.024 52.173c1.389 3.962-2.208 9.262-6.408 9.415l-52.866 7.987c-3.973.686-8.01-2.298-8.531-6.295-.298-1.979.192-3.957 1.379-5.569z"/></g></svg>